<?xml version="1.0" encoding="UTF-8" standalone="no"?>
<svg width="300px" height="700px" viewBox="0 0 300 700" version="1.1" xmlns="http://www.w3.org/2000/svg" xmlns:xlink="http://www.w3.org/1999/xlink">
    <!-- Generator: Sketch 47.1 (45422) - http://www.bohemiancoding.com/sketch -->
    <title>白板@1x</title>
    <desc>Created with Sketch.</desc>
    <defs></defs>
    <g id="Page-1" stroke="none" stroke-width="1" fill="none" fill-rule="evenodd">
        <g id="白板">
            <g id="笔" transform="translate(39.000000, 228.000000)" fill-rule="nonzero" fill="#939393">
                <path d="M16.3411816,0.00644880174 C15.3104595,0.00644880174 14.3693654,0.385708061 13.7195624,1.03267974 L1.50774617,13.3028322 L0.00647702407,19.9956427 L6.72857768,18.500915 L18.9628009,6.14152505 C19.6126039,5.49455338 19.993523,4.55755991 19.993523,3.53132898 C19.993523,1.59041394 18.4026258,0.00644880174 16.3411816,0.00644880174 Z M5.8995186,17.5862309 L2.71772429,18.3224401 L2.71772429,17.2069717 L1.59737418,17.2069717 L2.33680525,14.0390414 L5.8771116,14.0390414 L5.8771116,17.5862309 L5.8995186,17.5862309 Z M6.72857768,17.0284967 L6.72857768,13.592854 C6.72857768,13.3028322 6.54932166,13.1243573 6.25803063,13.1243573 L2.89698031,13.1243573 L12.6888403,3.35285403 L16.6100656,7.16775599 L6.72857768,17.0284967 Z M18.3129978,5.49455338 L17.2822757,6.52078431 L13.4506783,2.70588235 L14.4814004,1.67965142 C14.4814004,1.67965142 15.2208315,0.831895425 16.4532166,0.831895425 C17.9544858,0.831895425 19.1644639,2.03660131 19.1644639,3.53132898 C19.0524289,4.37908497 18.7835449,5.02605664 18.3129978,5.49455338 Z" id="Shape"></path>
            </g>
            <g id="笔-copy" transform="translate(115.000000, 228.000000)" fill-rule="nonzero" fill="#FFFFFF">
                <path d="M16.3411816,0.00644880174 C15.3104595,0.00644880174 14.3693654,0.385708061 13.7195624,1.03267974 L1.50774617,13.3028322 L0.00647702407,19.9956427 L6.72857768,18.500915 L18.9628009,6.14152505 C19.6126039,5.49455338 19.993523,4.55755991 19.993523,3.53132898 C19.993523,1.59041394 18.4026258,0.00644880174 16.3411816,0.00644880174 Z M5.8995186,17.5862309 L2.71772429,18.3224401 L2.71772429,17.2069717 L1.59737418,17.2069717 L2.33680525,14.0390414 L5.8771116,14.0390414 L5.8771116,17.5862309 L5.8995186,17.5862309 Z M6.72857768,17.0284967 L6.72857768,13.592854 C6.72857768,13.3028322 6.54932166,13.1243573 6.25803063,13.1243573 L2.89698031,13.1243573 L12.6888403,3.35285403 L16.6100656,7.16775599 L6.72857768,17.0284967 Z M18.3129978,5.49455338 L17.2822757,6.52078431 L13.4506783,2.70588235 L14.4814004,1.67965142 C14.4814004,1.67965142 15.2208315,0.831895425 16.4532166,0.831895425 C17.9544858,0.831895425 19.1644639,2.03660131 19.1644639,3.53132898 C19.0524289,4.37908497 18.7835449,5.02605664 18.3129978,5.49455338 Z" id="Shape"></path>
            </g>
            <g id="向左" transform="translate(37.000000, 529.000000)" fill-rule="nonzero" fill="#939393">
                <path d="M7.64255318,3.28510639 L7.64255318,0.561702128 C7.64255318,0.234893617 7.42468085,0.0170212851 7.09787234,0.0170212851 C6.93446809,0.0170212851 6.82553191,0.0714893617 6.71659575,0.18042554 L0.18042554,6.17191491 C0.0714893617,6.28085106 0.0170212851,6.38978724 0.0170212851,6.5531915 C0.0170212851,6.71659575 0.0714893617,6.82553193 0.18042554,6.93446809 L6.71659575,12.9259575 C6.82553193,13.0348936 6.93446809,13.0893617 7.09787234,13.0893617 C7.42468085,13.0893617 7.64255318,12.8714894 7.64255318,12.5446809 L7.64255318,9.87574471 C8.78638297,9.93021278 11.6731915,10.2570213 14.8323404,11.5642553 C20.1702128,13.7974468 22.893617,17.8280851 22.893617,23.4382979 C22.893617,23.7651064 23.1114894,23.9829787 23.4382979,23.9829787 C23.7651064,23.9829787 23.9829787,23.7651064 23.9829787,23.4382979 C23.9829787,5.57276597 10.5293617,3.50297872 7.64255318,3.28510639 Z M7.64255318,8.73191489 L7.09787234,8.73191489 C6.77106383,8.73191489 6.5531915,8.94978723 6.5531915,9.27659574 L6.5531915,11.2919149 L1.3787234,6.5531915 L6.5531915,1.81446809 L6.5531915,3.82978723 C6.5531915,4.15659574 6.77106383,4.37446808 7.09787234,4.37446808 L7.64255318,4.37446808 C10.0391489,4.53787233 18.6451064,5.7906383 21.8042553,15.7038298 C17.773617,9.71234043 9.87574468,8.84085107 7.64255318,8.73191489 Z" id="Shape"></path>
            </g>
            <g id="向左-copy" transform="translate(113.000000, 529.000000)" fill-rule="nonzero" fill="#FFFFFF">
                <path d="M7.64255318,3.28510639 L7.64255318,0.561702128 C7.64255318,0.234893617 7.42468085,0.0170212851 7.09787234,0.0170212851 C6.93446809,0.0170212851 6.82553191,0.0714893617 6.71659575,0.18042554 L0.18042554,6.17191491 C0.0714893617,6.28085106 0.0170212851,6.38978724 0.0170212851,6.5531915 C0.0170212851,6.71659575 0.0714893617,6.82553193 0.18042554,6.93446809 L6.71659575,12.9259575 C6.82553193,13.0348936 6.93446809,13.0893617 7.09787234,13.0893617 C7.42468085,13.0893617 7.64255318,12.8714894 7.64255318,12.5446809 L7.64255318,9.87574471 C8.78638297,9.93021278 11.6731915,10.2570213 14.8323404,11.5642553 C20.1702128,13.7974468 22.893617,17.8280851 22.893617,23.4382979 C22.893617,23.7651064 23.1114894,23.9829787 23.4382979,23.9829787 C23.7651064,23.9829787 23.9829787,23.7651064 23.9829787,23.4382979 C23.9829787,5.57276597 10.5293617,3.50297872 7.64255318,3.28510639 Z M7.64255318,8.73191489 L7.09787234,8.73191489 C6.77106383,8.73191489 6.5531915,8.94978723 6.5531915,9.27659574 L6.5531915,11.2919149 L1.3787234,6.5531915 L6.5531915,1.81446809 L6.5531915,3.82978723 C6.5531915,4.15659574 6.77106383,4.37446808 7.09787234,4.37446808 L7.64255318,4.37446808 C10.0391489,4.53787233 18.6451064,5.7906383 21.8042553,15.7038298 C17.773617,9.71234043 9.87574468,8.84085107 7.64255318,8.73191489 Z" id="Shape"></path>
            </g>
            <g id="向右-(1)" transform="translate(37.000000, 485.000000)" fill-rule="nonzero" fill="#939393">
                <path d="M23.8195745,6.17191489 L17.2834042,0.180425515 C17.1744681,0.0714893617 17.0655319,0.0170212851 16.9021277,0.0170212851 C16.5753191,0.0170212851 16.3574468,0.234893617 16.3574468,0.561702128 L16.3574468,3.28510639 C13.4706383,3.50297872 0.0170212851,5.57276597 0.0170212851,23.4382979 C0.0170212851,23.7651064 0.234893617,23.9829787 0.561702128,23.9829787 C0.888510638,23.9829787 1.10638297,23.7651064 1.10638297,23.4382979 C1.10638297,17.8280851 3.82978723,13.7974468 9.16765956,11.5642553 C12.3268085,10.2570213 15.213617,9.93021276 16.3574468,9.87574468 L16.3574468,12.5446808 C16.3574468,12.8714894 16.5753191,13.0893617 16.9021277,13.0893617 C17.0655319,13.0893617 17.1744681,13.0348936 17.2834042,12.9259574 L23.8195745,6.93446806 C23.9285106,6.82553188 23.9829787,6.71659573 23.9829787,6.55319147 C23.9829787,6.38978724 23.9285106,6.28085106 23.8195745,6.17191489 Z M17.4468085,11.2919149 L17.4468085,9.27659574 C17.4468085,8.94978723 17.2289362,8.73191489 16.9021277,8.73191489 L16.3574468,8.73191489 C14.1242553,8.84085107 6.22638299,9.71234043 2.19574468,15.7038298 C5.35489361,5.7906383 13.9608511,4.53787233 16.3574468,4.37446808 L16.9021277,4.37446808 C17.2289362,4.37446808 17.4468085,4.15659574 17.4468085,3.82978723 L17.4468085,1.81446809 L22.6212766,6.5531915 L17.4468085,11.2919149 Z" id="Shape"></path>
            </g>
            <g id="向右-(1)-copy" transform="translate(113.000000, 485.000000)" fill-rule="nonzero" fill="#FFFFFF">
                <path d="M23.8195745,6.17191489 L17.2834042,0.180425515 C17.1744681,0.0714893617 17.0655319,0.0170212851 16.9021277,0.0170212851 C16.5753191,0.0170212851 16.3574468,0.234893617 16.3574468,0.561702128 L16.3574468,3.28510639 C13.4706383,3.50297872 0.0170212851,5.57276597 0.0170212851,23.4382979 C0.0170212851,23.7651064 0.234893617,23.9829787 0.561702128,23.9829787 C0.888510638,23.9829787 1.10638297,23.7651064 1.10638297,23.4382979 C1.10638297,17.8280851 3.82978723,13.7974468 9.16765956,11.5642553 C12.3268085,10.2570213 15.213617,9.93021276 16.3574468,9.87574468 L16.3574468,12.5446808 C16.3574468,12.8714894 16.5753191,13.0893617 16.9021277,13.0893617 C17.0655319,13.0893617 17.1744681,13.0348936 17.2834042,12.9259574 L23.8195745,6.93446806 C23.9285106,6.82553188 23.9829787,6.71659573 23.9829787,6.55319147 C23.9829787,6.38978724 23.9285106,6.28085106 23.8195745,6.17191489 Z M17.4468085,11.2919149 L17.4468085,9.27659574 C17.4468085,8.94978723 17.2289362,8.73191489 16.9021277,8.73191489 L16.3574468,8.73191489 C14.1242553,8.84085107 6.22638299,9.71234043 2.19574468,15.7038298 C5.35489361,5.7906383 13.9608511,4.53787233 16.3574468,4.37446808 L16.9021277,4.37446808 C17.2289362,4.37446808 17.4468085,4.15659574 17.4468085,3.82978723 L17.4468085,1.81446809 L22.6212766,6.5531915 L17.4468085,11.2919149 Z" id="Shape"></path>
            </g>
            <g id="文字" transform="translate(39.000000, 311.000000)" fill-rule="nonzero" fill="#939393">
                <path d="M19.3749311,0.625289375 L19.3749311,1.8752067 L11.2501378,1.8752067 C10.9050079,1.87520669 10.6251906,2.15492521 10.6250689,2.50005512 L10.6250689,19.3749311 L9.37515158,19.3749311 L9.37515158,2.50027561 C9.37515158,2.15518135 9.09539742,1.87542719 8.75030316,1.87542719 L0.625289375,1.87542719 L0.625289375,0.625289375 L19.3749311,0.625289375 L19.3749311,0.625289375 Z M20,0.000220488281 L0.000440957031,0.000220488281 L0.000440957031,2.50027561 L8.75030316,2.50027561 L8.75030316,20 L11.2501378,20 L11.2501378,2.50027561 L20,2.50027561 L20,0.000220488281 Z" id="Shape"></path>
            </g>
            <g id="文字-copy" transform="translate(115.000000, 311.000000)" fill-rule="nonzero" fill="#FFFFFF">
                <path d="M19.3749311,0.625289375 L19.3749311,1.8752067 L11.2501378,1.8752067 C10.9050079,1.87520669 10.6251906,2.15492521 10.6250689,2.50005512 L10.6250689,19.3749311 L9.37515158,19.3749311 L9.37515158,2.50027561 C9.37515158,2.15518135 9.09539742,1.87542719 8.75030316,1.87542719 L0.625289375,1.87542719 L0.625289375,0.625289375 L19.3749311,0.625289375 L19.3749311,0.625289375 Z M20,0.000220488281 L0.000440957031,0.000220488281 L0.000440957031,2.50027561 L8.75030316,2.50027561 L8.75030316,20 L11.2501378,20 L11.2501378,2.50027561 L20,2.50027561 L20,0.000220488281 Z" id="Shape"></path>
            </g>
            <g id="缩小" transform="translate(37.000000, 113.000000)" fill-rule="nonzero" fill="#939393">
                <path d="M15.2916078,9.83027451 L5.46656209,9.83027451 C5.11853595,9.83027451 4.90436601,10.0444444 4.90436601,10.3924706 C4.90436601,10.7404967 5.11853595,10.9546667 5.46656209,10.9546667 L15.2916078,10.9546667 C15.639634,10.9546667 15.8538039,10.7404967 15.8538039,10.3924706 C15.8538039,10.1515294 15.6128627,9.83027451 15.2916078,9.83027451 Z M23.8851765,23.0820392 L18.075817,17.299451 C19.7624052,15.5057778 20.7529412,13.0695948 20.7529412,10.3924706 C20.7529412,4.69019608 16.0679739,0.00522875817 10.3924706,0.00522875817 C4.71696732,0.00522875817 0.00522875817,4.69019608 0.00522875817,10.3924706 C0.00522875817,16.0947451 4.69019608,20.7529412 10.3924706,20.7529412 C13.0695948,20.7529412 15.532549,19.735634 17.299451,18.075817 L23.1088105,23.8851765 C23.2158954,23.9922614 23.3229804,23.9922614 23.4568366,23.9922614 C23.8048627,23.9922614 24.0190327,23.7780915 24.0190327,23.4300654 C23.9922614,23.3229804 23.9922614,23.2158954 23.8851765,23.0820392 Z M10.3924706,19.628549 C5.25239216,19.628549 1.12962092,15.5057778 1.12962092,10.3656993 C1.12962092,5.35947712 5.35947712,1.12962092 10.3924706,1.12962092 C15.4254641,1.12962092 19.6553203,5.25239216 19.6553203,10.3924706 C19.6553203,15.532549 15.5057778,19.628549 10.3924706,19.628549 Z" id="Shape"></path>
            </g>
            <g id="缩小-copy" transform="translate(113.000000, 113.000000)" fill-rule="nonzero" fill="#FFFFFF">
                <path d="M15.2916078,9.83027451 L5.46656209,9.83027451 C5.11853595,9.83027451 4.90436601,10.0444444 4.90436601,10.3924706 C4.90436601,10.7404967 5.11853595,10.9546667 5.46656209,10.9546667 L15.2916078,10.9546667 C15.639634,10.9546667 15.8538039,10.7404967 15.8538039,10.3924706 C15.8538039,10.1515294 15.6128627,9.83027451 15.2916078,9.83027451 Z M23.8851765,23.0820392 L18.075817,17.299451 C19.7624052,15.5057778 20.7529412,13.0695948 20.7529412,10.3924706 C20.7529412,4.69019608 16.0679739,0.00522875817 10.3924706,0.00522875817 C4.71696732,0.00522875817 0.00522875817,4.69019608 0.00522875817,10.3924706 C0.00522875817,16.0947451 4.69019608,20.7529412 10.3924706,20.7529412 C13.0695948,20.7529412 15.532549,19.735634 17.299451,18.075817 L23.1088105,23.8851765 C23.2158954,23.9922614 23.3229804,23.9922614 23.4568366,23.9922614 C23.8048627,23.9922614 24.0190327,23.7780915 24.0190327,23.4300654 C23.9922614,23.3229804 23.9922614,23.2158954 23.8851765,23.0820392 Z M10.3924706,19.628549 C5.25239216,19.628549 1.12962092,15.5057778 1.12962092,10.3656993 C1.12962092,5.35947712 5.35947712,1.12962092 10.3924706,1.12962092 C15.4254641,1.12962092 19.6553203,5.25239216 19.6553203,10.3924706 C19.6553203,15.532549 15.5057778,19.628549 10.3924706,19.628549 Z" id="Shape"></path>
            </g>
            <g id="删除" transform="translate(39.000000, 664.000000)" fill-rule="nonzero" fill="#939393">
                <path d="M6.53617021,20.7148936 C6.86297872,20.7148936 7.08085106,20.4425532 7.08085106,20.1702128 L6.26382978,7.09787234 C6.26382978,6.77106383 5.99148934,6.5531915 5.71914894,6.5531915 C5.39234043,6.5531915 5.17446809,6.82553193 5.17446809,7.09787234 L5.99148937,20.1702128 C5.99148937,20.4970213 6.26382978,20.7148936 6.53617021,20.7148936 Z M19.0638298,3.28510639 L13.6170213,3.28510639 L13.6170213,1.10638297 C13.6170213,0.507234026 13.1268085,0.0170212596 12.5276596,0.0170212596 L7.08085106,0.0170212851 C6.48170211,0.0170212851 5.99148934,0.507234051 5.99148934,1.106383 L5.99148934,3.28510639 L0.544680843,3.28510639 C0.217872332,3.28510639 0,3.50297872 0,3.82978723 C0,4.15659574 0.217872332,4.37446808 0.544680843,4.37446808 L1.63404255,4.37446808 L2.72340426,21.8042553 C2.88680852,23.0025532 3.7038298,23.9829787 4.90212766,23.9829787 L14.706383,23.9829787 C15.9046808,23.9829787 16.667234,23.0025532 16.8851064,21.8042553 L17.9744681,4.37446808 L19.0638298,4.37446808 C19.3906383,4.37446808 19.6085106,4.15659574 19.6085106,3.82978723 C19.6085106,3.50297872 19.3906383,3.28510639 19.0638298,3.28510639 Z M7.08085106,1.10638297 L12.5276596,1.10638297 L12.5276596,3.28510637 L7.08085106,3.28510639 L7.08085106,1.10638297 Z M15.7957447,21.8042553 C15.7412766,22.4034043 15.3055319,22.893617 14.706383,22.893617 L4.90212766,22.893617 C4.30297871,22.893617 3.92170213,22.4034043 3.81276595,21.8042553 L2.72340424,4.37446808 L16.8851064,4.37446808 L15.7957447,21.8042553 Z M13.0723404,20.7148936 C13.3991489,20.7148936 13.6170213,20.4970213 13.6170213,20.1702128 L14.4340425,7.09787234 C14.4340425,6.77106383 14.2161702,6.5531915 13.8893617,6.5531915 C13.5625532,6.5531915 13.3446809,6.77106383 13.3446809,7.09787234 L12.5276596,20.1702128 C12.5276596,20.4425532 12.7455319,20.7148936 13.0723404,20.7148936 Z M9.80425532,20.7148936 C10.1310638,20.7148936 10.3489362,20.4970213 10.3489362,20.1702128 L10.3489362,7.09787234 C10.3489362,6.77106383 10.1310638,6.5531915 9.80425532,6.5531915 C9.47744681,6.5531915 9.25957448,6.77106383 9.25957448,7.09787234 L9.25957448,20.1702128 C9.25957448,20.4970213 9.47744681,20.7148936 9.80425532,20.7148936 Z" id="Shape"></path>
            </g>
            <g id="删除-copy" transform="translate(115.000000, 664.000000)" fill-rule="nonzero" fill="#FFFFFF">
                <path d="M6.53617021,20.7148936 C6.86297872,20.7148936 7.08085106,20.4425532 7.08085106,20.1702128 L6.26382978,7.09787234 C6.26382978,6.77106383 5.99148934,6.5531915 5.71914894,6.5531915 C5.39234043,6.5531915 5.17446809,6.82553193 5.17446809,7.09787234 L5.99148937,20.1702128 C5.99148937,20.4970213 6.26382978,20.7148936 6.53617021,20.7148936 Z M19.0638298,3.28510639 L13.6170213,3.28510639 L13.6170213,1.10638297 C13.6170213,0.507234026 13.1268085,0.0170212596 12.5276596,0.0170212596 L7.08085106,0.0170212851 C6.48170211,0.0170212851 5.99148934,0.507234051 5.99148934,1.106383 L5.99148934,3.28510639 L0.544680843,3.28510639 C0.217872332,3.28510639 0,3.50297872 0,3.82978723 C0,4.15659574 0.217872332,4.37446808 0.544680843,4.37446808 L1.63404255,4.37446808 L2.72340426,21.8042553 C2.88680852,23.0025532 3.7038298,23.9829787 4.90212766,23.9829787 L14.706383,23.9829787 C15.9046808,23.9829787 16.667234,23.0025532 16.8851064,21.8042553 L17.9744681,4.37446808 L19.0638298,4.37446808 C19.3906383,4.37446808 19.6085106,4.15659574 19.6085106,3.82978723 C19.6085106,3.50297872 19.3906383,3.28510639 19.0638298,3.28510639 Z M7.08085106,1.10638297 L12.5276596,1.10638297 L12.5276596,3.28510637 L7.08085106,3.28510639 L7.08085106,1.10638297 Z M15.7957447,21.8042553 C15.7412766,22.4034043 15.3055319,22.893617 14.706383,22.893617 L4.90212766,22.893617 C4.30297871,22.893617 3.92170213,22.4034043 3.81276595,21.8042553 L2.72340424,4.37446808 L16.8851064,4.37446808 L15.7957447,21.8042553 Z M13.0723404,20.7148936 C13.3991489,20.7148936 13.6170213,20.4970213 13.6170213,20.1702128 L14.4340425,7.09787234 C14.4340425,6.77106383 14.2161702,6.5531915 13.8893617,6.5531915 C13.5625532,6.5531915 13.3446809,6.77106383 13.3446809,7.09787234 L12.5276596,20.1702128 C12.5276596,20.4425532 12.7455319,20.7148936 13.0723404,20.7148936 Z M9.80425532,20.7148936 C10.1310638,20.7148936 10.3489362,20.4970213 10.3489362,20.1702128 L10.3489362,7.09787234 C10.3489362,6.77106383 10.1310638,6.5531915 9.80425532,6.5531915 C9.47744681,6.5531915 9.25957448,6.77106383 9.25957448,7.09787234 L9.25957448,20.1702128 C9.25957448,20.4970213 9.47744681,20.7148936 9.80425532,20.7148936 Z" id="Shape"></path>
            </g>
            <g id="加" transform="translate(37.000000, 24.000000)" fill-rule="nonzero" fill="#959595">
                <path d="M18.044849,11.4353435 L12.5596149,11.4353435 L12.5596149,5.95010941 C12.5596149,5.60056018 12.3445077,5.38545295 11.9949584,5.38545295 C11.6454092,5.38545295 11.430302,5.60056018 11.430302,5.95010941 L11.430302,11.4353435 L5.94506783,11.4353435 C5.72996061,11.4353435 5.48796499,11.6504508 5.48796499,12 C5.48796499,12.3495492 5.70307221,12.5646565 6.05262144,12.5646565 L11.5378556,12.5646565 L11.5378556,18.0498906 C11.5378556,18.3994398 11.7529628,18.614547 12.102512,18.614547 C12.4520613,18.614547 12.6671685,18.3994398 12.6671685,18.0498906 L12.6671685,12.5646565 L18.1524026,12.5646565 C18.4750635,12.5646565 18.7170591,12.3495492 18.7170591,12 C18.6095055,11.6504508 18.2599562,11.4353435 18.044849,11.4353435 Z M11.9949584,0.00777242888 C5.38041138,0.00777242888 0.00273085339,5.38545295 0.00273085339,12 C0.00273085339,18.614547 5.38041138,23.9922276 11.9949584,23.9922276 C18.6095055,23.9922276 23.987186,18.614547 23.987186,12 C23.987186,5.38545295 18.6095055,0.00777242888 11.9949584,0.00777242888 Z M11.9949584,22.9704683 C5.94506783,22.9704683 0.997601751,18.0498906 0.997601751,12 C0.997601751,5.95010941 5.94506783,1.02953173 11.9949584,1.02953173 C18.044849,1.02953173 22.9654267,5.95010941 22.9654267,12 C22.9654267,18.0498906 18.044849,22.9704683 11.9949584,22.9704683 Z" id="Shape"></path>
            </g>
            <g id="加-copy" transform="translate(113.000000, 24.000000)" fill-rule="nonzero" fill="#FFFFFF">
                <path d="M18.044849,11.4353435 L12.5596149,11.4353435 L12.5596149,5.95010941 C12.5596149,5.60056018 12.3445077,5.38545295 11.9949584,5.38545295 C11.6454092,5.38545295 11.430302,5.60056018 11.430302,5.95010941 L11.430302,11.4353435 L5.94506783,11.4353435 C5.72996061,11.4353435 5.48796499,11.6504508 5.48796499,12 C5.48796499,12.3495492 5.70307221,12.5646565 6.05262144,12.5646565 L11.5378556,12.5646565 L11.5378556,18.0498906 C11.5378556,18.3994398 11.7529628,18.614547 12.102512,18.614547 C12.4520613,18.614547 12.6671685,18.3994398 12.6671685,18.0498906 L12.6671685,12.5646565 L18.1524026,12.5646565 C18.4750635,12.5646565 18.7170591,12.3495492 18.7170591,12 C18.6095055,11.6504508 18.2599562,11.4353435 18.044849,11.4353435 Z M11.9949584,0.00777242888 C5.38041138,0.00777242888 0.00273085339,5.38545295 0.00273085339,12 C0.00273085339,18.614547 5.38041138,23.9922276 11.9949584,23.9922276 C18.6095055,23.9922276 23.987186,18.614547 23.987186,12 C23.987186,5.38545295 18.6095055,0.00777242888 11.9949584,0.00777242888 Z M11.9949584,22.9704683 C5.94506783,22.9704683 0.997601751,18.0498906 0.997601751,12 C0.997601751,5.95010941 5.94506783,1.02953173 11.9949584,1.02953173 C18.044849,1.02953173 22.9654267,5.95010941 22.9654267,12 C22.9654267,18.0498906 18.044849,22.9704683 11.9949584,22.9704683 Z" id="Shape"></path>
            </g>
            <g id="画笔" transform="translate(37.000000, 269.000000)" fill-rule="nonzero" fill="#939393">
                <path d="M23.316452,0.625224787 C22.4206075,-0.195965978 21.0768408,-0.195965978 20.1809964,0.625224787 L7.34055893,13.3163548 C5.77283111,13.3163548 3.60787363,13.8389307 2.63737546,16.8997327 C1.8908384,18.5421142 0.0244957473,18.4674605 0.0244957473,18.4674605 C3.98114216,22.7973755 8.53501823,20.3338032 9.65482382,19.2886513 C10.5506683,18.3181531 10.6999757,17.1983475 10.625322,16.302503 L23.316452,3.76068044 C24.2122965,2.86483597 24.2122965,1.52106926 23.316452,0.625224787 Z M8.68432564,18.2434994 C7.93778858,18.9153827 4.65302552,20.4084569 2.71202916,18.9900365 C2.71202916,18.9900365 3.38391252,18.4674605 3.90648846,17.4223086 C5.10094775,14.2121993 8.1617497,14.6601215 8.1617497,14.6601215 L9.20690158,15.7052734 C9.20690158,15.6306197 9.95343864,17.0490401 8.68432564,18.2434994 Z M10.2520535,14.5854678 L9.20690158,13.5403159 L10.7746294,11.9725881 L11.8197813,13.01774 L10.2520535,14.5854678 L10.2520535,14.5854678 Z M22.2713001,2.71552855 L12.7902795,12.0472418 L11.7451276,11.0020899 L21.2261482,1.67037667 C21.5247631,1.37176185 21.9726853,1.37176185 22.2713001,1.67037667 C22.5699149,1.96899149 22.5699149,2.41691373 22.2713001,2.71552855 Z" id="Shape"></path>
            </g>
            <g id="画笔-copy" transform="translate(113.000000, 269.000000)" fill-rule="nonzero" fill="#FFFFFF">
                <path d="M23.316452,0.625224787 C22.4206075,-0.195965978 21.0768408,-0.195965978 20.1809964,0.625224787 L7.34055893,13.3163548 C5.77283111,13.3163548 3.60787363,13.8389307 2.63737546,16.8997327 C1.8908384,18.5421142 0.0244957473,18.4674605 0.0244957473,18.4674605 C3.98114216,22.7973755 8.53501823,20.3338032 9.65482382,19.2886513 C10.5506683,18.3181531 10.6999757,17.1983475 10.625322,16.302503 L23.316452,3.76068044 C24.2122965,2.86483597 24.2122965,1.52106926 23.316452,0.625224787 Z M8.68432564,18.2434994 C7.93778858,18.9153827 4.65302552,20.4084569 2.71202916,18.9900365 C2.71202916,18.9900365 3.38391252,18.4674605 3.90648846,17.4223086 C5.10094775,14.2121993 8.1617497,14.6601215 8.1617497,14.6601215 L9.20690158,15.7052734 C9.20690158,15.6306197 9.95343864,17.0490401 8.68432564,18.2434994 Z M10.2520535,14.5854678 L9.20690158,13.5403159 L10.7746294,11.9725881 L11.8197813,13.01774 L10.2520535,14.5854678 L10.2520535,14.5854678 Z M22.2713001,2.71552855 L12.7902795,12.0472418 L11.7451276,11.0020899 L21.2261482,1.67037667 C21.5247631,1.37176185 21.9726853,1.37176185 22.2713001,1.67037667 C22.5699149,1.96899149 22.5699149,2.41691373 22.2713001,2.71552855 Z" id="Shape"></path>
            </g>
            <g id="放大" transform="translate(37.000000, 159.000000)" fill-rule="nonzero" fill="#939393">
                <path d="M15.259817,9.83027451 L10.9228758,9.83027451 L10.9228758,5.46656209 C10.9228758,5.11853595 10.7087059,4.90436601 10.3606797,4.90436601 C10.0126536,4.90436601 9.79848366,5.25239216 9.79848366,5.46656209 L9.79848366,9.80350327 L5.46154248,9.80350327 C5.11351634,9.80350327 4.89934641,10.0176732 4.89934641,10.3656993 C4.89934641,10.7137255 5.11351634,10.9278954 5.46154248,10.9278954 L9.8252549,10.9278954 L9.8252549,15.2648366 C9.8252549,15.6128627 10.0394248,15.8270327 10.387451,15.8270327 C10.7354771,15.8270327 10.9496471,15.6128627 10.9496471,15.2648366 L10.9496471,10.9278954 L15.3133595,10.9278954 C15.6613856,10.9278954 15.8755556,10.7137255 15.8755556,10.3656993 C15.8220131,10.1515294 15.6078431,9.83027451 15.259817,9.83027451 Z M23.8533856,23.0820392 L18.0707974,17.299451 C19.7573856,15.5057778 20.7479216,13.0695948 20.7479216,10.3924706 C20.7479216,4.69019608 16.0629542,0.00522875817 10.3606797,0.00522875817 C4.65840523,0.00522875817 0.000209150327,4.69019608 0.000209150327,10.3924706 C0.000209150327,16.0947451 4.68517647,20.7529412 10.3606797,20.7529412 C13.0378039,20.7529412 15.5007582,19.735634 17.2676601,18.075817 L23.0770196,23.8851765 C23.1841046,23.9922614 23.2911895,23.9922614 23.4250458,23.9922614 C23.7463007,23.9922614 23.9872418,23.7780915 23.9872418,23.4300654 C23.9872418,23.3229804 23.9872418,23.2158954 23.8533856,23.0820392 Z M10.3606797,19.628549 C5.22060131,19.628549 1.09783007,15.5057778 1.09783007,10.3656993 C1.09783007,5.35947712 5.22060131,1.12962092 10.3606797,1.12962092 C15.5007582,1.12962092 19.6235294,5.25239216 19.6235294,10.3924706 C19.6235294,15.532549 15.5007582,19.628549 10.3606797,19.628549 Z" id="Shape"></path>
            </g>
            <g id="放大-copy" transform="translate(113.000000, 159.000000)" fill-rule="nonzero" fill="#FFFFFF">
                <path d="M15.259817,9.83027451 L10.9228758,9.83027451 L10.9228758,5.46656209 C10.9228758,5.11853595 10.7087059,4.90436601 10.3606797,4.90436601 C10.0126536,4.90436601 9.79848366,5.25239216 9.79848366,5.46656209 L9.79848366,9.80350327 L5.46154248,9.80350327 C5.11351634,9.80350327 4.89934641,10.0176732 4.89934641,10.3656993 C4.89934641,10.7137255 5.11351634,10.9278954 5.46154248,10.9278954 L9.8252549,10.9278954 L9.8252549,15.2648366 C9.8252549,15.6128627 10.0394248,15.8270327 10.387451,15.8270327 C10.7354771,15.8270327 10.9496471,15.6128627 10.9496471,15.2648366 L10.9496471,10.9278954 L15.3133595,10.9278954 C15.6613856,10.9278954 15.8755556,10.7137255 15.8755556,10.3656993 C15.8220131,10.1515294 15.6078431,9.83027451 15.259817,9.83027451 Z M23.8533856,23.0820392 L18.0707974,17.299451 C19.7573856,15.5057778 20.7479216,13.0695948 20.7479216,10.3924706 C20.7479216,4.69019608 16.0629542,0.00522875817 10.3606797,0.00522875817 C4.65840523,0.00522875817 0.000209150327,4.69019608 0.000209150327,10.3924706 C0.000209150327,16.0947451 4.68517647,20.7529412 10.3606797,20.7529412 C13.0378039,20.7529412 15.5007582,19.735634 17.2676601,18.075817 L23.0770196,23.8851765 C23.1841046,23.9922614 23.2911895,23.9922614 23.4250458,23.9922614 C23.7463007,23.9922614 23.9872418,23.7780915 23.9872418,23.4300654 C23.9872418,23.3229804 23.9872418,23.2158954 23.8533856,23.0820392 Z M10.3606797,19.628549 C5.22060131,19.628549 1.09783007,15.5057778 1.09783007,10.3656993 C1.09783007,5.35947712 5.22060131,1.12962092 10.3606797,1.12962092 C15.5007582,1.12962092 19.6235294,5.25239216 19.6235294,10.3924706 C19.6235294,15.532549 15.5007582,19.628549 10.3606797,19.628549 Z" id="Shape"></path>
            </g>
            <path d="M41,70.5 C39.6192881,70.5 38.5,71.6192881 38.5,73 L38.5,78 C38.5,79.3807119 39.6192881,80.5 41,80.5 L46,80.5 C47.3807119,80.5 48.5,79.3807119 48.5,78 L48.5,73 C48.5,71.6192881 47.3807119,70.5 46,70.5 L41,70.5 Z M41,82.5 C39.6192881,82.5 38.5,83.6192881 38.5,85 L38.5,90 C38.5,91.3807119 39.6192881,92.5 41,92.5 L46,92.5 C47.3807119,92.5 48.5,91.3807119 48.5,90 L48.5,85 C48.5,83.6192881 47.3807119,82.5 46,82.5 L41,82.5 Z M53,70.5 C51.6192881,70.5 50.5,71.6192881 50.5,73 L50.5,78 C50.5,79.3807119 51.6192881,80.5 53,80.5 L58,80.5 C59.3807119,80.5 60.5,79.3807119 60.5,78 L60.5,73 C60.5,71.6192881 59.3807119,70.5 58,70.5 L53,70.5 Z M53,82.5 C51.6192881,82.5 50.5,83.6192881 50.5,85 L50.5,90 C50.5,91.3807119 51.6192881,92.5 53,92.5 L58,92.5 C59.3807119,92.5 60.5,91.3807119 60.5,90 L60.5,85 C60.5,83.6192881 59.3807119,82.5 58,82.5 L53,82.5 Z" id="Combined-Shape" stroke="#959595"></path>
            <path d="M117,70.5 C115.619288,70.5 114.5,71.6192881 114.5,73 L114.5,78 C114.5,79.3807119 115.619288,80.5 117,80.5 L122,80.5 C123.380712,80.5 124.5,79.3807119 124.5,78 L124.5,73 C124.5,71.6192881 123.380712,70.5 122,70.5 L117,70.5 Z M117,82.5 C115.619288,82.5 114.5,83.6192881 114.5,85 L114.5,90 C114.5,91.3807119 115.619288,92.5 117,92.5 L122,92.5 C123.380712,92.5 124.5,91.3807119 124.5,90 L124.5,85 C124.5,83.6192881 123.380712,82.5 122,82.5 L117,82.5 Z M129,70.5 C127.619288,70.5 126.5,71.6192881 126.5,73 L126.5,78 C126.5,79.3807119 127.619288,80.5 129,80.5 L134,80.5 C135.380712,80.5 136.5,79.3807119 136.5,78 L136.5,73 C136.5,71.6192881 135.380712,70.5 134,70.5 L129,70.5 Z M129,82.5 C127.619288,82.5 126.5,83.6192881 126.5,85 L126.5,90 C126.5,91.3807119 127.619288,92.5 129,92.5 L134,92.5 C135.380712,92.5 136.5,91.3807119 136.5,90 L136.5,85 C136.5,83.6192881 135.380712,82.5 134,82.5 L129,82.5 Z" id="Combined-Shape-Copy-2" stroke="#FFFFFF"></path>
            <path d="M39,205 L53,205 L53,207 L39,207 L39,205 Z M57.5,204 L60,207 L55,207 L57.5,204 Z" id="Combined-Shape" fill="#939393"></path>
            <path d="M115,205 L129,205 L129,207 L115,207 L115,205 Z M133.5,204 L136,207 L131,207 L133.5,204 Z" id="Combined-Shape-Copy-3" fill="#FFFFFF"></path>
            <g id="Group-2" transform="translate(39.000000, 353.000000)">
                <g id="Group">
                    <polygon id="Triangle-2" stroke="#939393" points="7 0 14 10 0 10"></polygon>
                    <polygon id="Combined-Shape-Copy" fill="#939393" points="18.5 15 21 18 16 18"></polygon>
                </g>
                <circle id="Oval" stroke="#939393" cx="11.5" cy="10.5" r="5.5"></circle>
            </g>
            <g id="Group-2-Copy" transform="translate(115.000000, 353.000000)">
                <g id="Group">
                    <polygon id="Triangle-2" stroke="#FFFFFF" points="7 0 14 10 0 10"></polygon>
                    <polygon id="Combined-Shape-Copy" fill="#FFFFFF" points="18.5 15 21 18 16 18"></polygon>
                </g>
                <circle id="Oval" stroke="#FFFFFF" cx="11.5" cy="10.5" r="5.5"></circle>
            </g>
            <g id="Group-3" transform="translate(40.000000, 392.000000)">
                <circle id="Oval-7" stroke="#939393" cx="12.5" cy="6.5" r="6.5"></circle>
                <circle id="Oval-2" fill="#939393" cx="12.5" cy="6.5" r="1.5"></circle>
                <circle id="Oval-2-Copy" fill="#939393" cx="5.5" cy="13.5" r="1.5"></circle>
                <circle id="Oval-2-Copy-2" fill="#939393" cx="1.5" cy="17.5" r="1.5"></circle>
            </g>
            <g id="Group-3-Copy" transform="translate(116.000000, 392.000000)">
                <circle id="Oval-7" stroke="#FFFFFF" cx="12.5" cy="6.5" r="6.5"></circle>
                <circle id="Oval-2" fill="#FFFFFF" cx="12.5" cy="6.5" r="1.5"></circle>
                <circle id="Oval-2-Copy" fill="#FFFFFF" cx="5.5" cy="13.5" r="1.5"></circle>
                <circle id="Oval-2-Copy-2" fill="#FFFFFF" cx="1.5" cy="17.5" r="1.5"></circle>
            </g>
            <g id="Group-4" transform="translate(50.081475, 586.081475) rotate(45.000000) translate(-50.081475, -586.081475) translate(42.581475, 575.081475)">
                <rect id="Rectangle-25" stroke="#979797" x="0.5" y="0.5" width="14" height="21" rx="3"></rect>
                <rect id="Rectangle-2" fill="#979797" x="0" y="15" width="15" height="1"></rect>
            </g>
            <g id="Group-4-Copy" transform="translate(126.081475, 586.081475) rotate(45.000000) translate(-126.081475, -586.081475) translate(118.581475, 575.081475)">
                <rect id="Rectangle-25" stroke="#FFFFFF" x="0.5" y="0.5" width="14" height="21" rx="3"></rect>
                <rect id="Rectangle-2" fill="#FFFFFF" x="0" y="15" width="15" height="1"></rect>
            </g>
            <g id="清空" transform="translate(39.000000, 620.000000)" fill-rule="nonzero" fill="#939393">
                <path d="M8.925,10.434 L7.35,10.434 L7.35,1.5645 C7.35,0.7005 8.055,0 8.925,0 L12.075,0 C12.945,0 13.6485,0.7005 13.6485,1.5645 L13.6485,10.434 L12.0735,10.434 L12.0735,2.244 C12.0726729,1.86848 11.7680209,1.56449909 11.3925,1.5645 L9.6075,1.5645 C9.42676617,1.56370205 9.25316098,1.63493961 9.12508043,1.76245716 C8.99699988,1.88997472 8.92499824,2.06326441 8.925,2.244 L8.925,10.434 L8.925,10.434 Z M12.075,10.434 L19.4205,10.434 C20.2905,10.434 20.9955,11.136 20.9955,12 L20.9955,15.6525 L0.0045,15.6525 L0.0045,12 C0.0045,11.136 0.7095,10.434 1.5795,10.434 L8.925,10.434 L8.925,12 L2.2605,12 C1.88556255,11.9999964 1.58115171,12.3030662 1.5795,12.678 L1.5795,14.088 L19.4205,14.088 L19.4205,12.678 C19.4201026,12.4977853 19.3481313,12.3251096 19.2204189,12.1979598 C19.0927065,12.07081 18.9197147,11.9996017 18.7395,12 L12.075,12 L12.075,10.434 Z M13.5345,22.434 L14.9595,22.434 L14.9595,19.305 L13.5345,19.305 L13.5345,22.4355 L2.6295,22.4355 C2.35181799,22.4362968 2.08519271,22.3267516 1.88827927,22.1309634 C1.69136582,21.9351752 1.58029451,21.669182 1.5795,21.3915 L1.5795,17.739 L19.4205,17.739 L19.4205,21.3915 C19.4197055,21.669182 19.3086342,21.9351752 19.1117207,22.1309634 C18.9148073,22.3267516 18.648182,22.4362968 18.3705,22.4355 L18.0015,22.4355 L18.0015,19.305 L16.5345,19.305 L16.5345,22.4355 L10.5345,22.4355 L13.5345,22.4355 L13.5345,22.434 Z M0.0045,22.434 C0.0045,23.2995 0.7095,24 1.5795,24 L19.4205,24 C20.2905,24 20.9955,23.2995 20.9955,22.4355 L20.9955,16.1745 L0.0045,16.1745 L0.0045,22.4355 L0.0045,22.434 Z" id="Shape"></path>
            </g>
            <g id="清空-copy" transform="translate(115.000000, 620.000000)" fill-rule="nonzero" fill="#FFFFFF">
                <path d="M8.925,10.434 L7.35,10.434 L7.35,1.5645 C7.35,0.7005 8.055,0 8.925,0 L12.075,0 C12.945,0 13.6485,0.7005 13.6485,1.5645 L13.6485,10.434 L12.0735,10.434 L12.0735,2.244 C12.0726729,1.86848 11.7680209,1.56449909 11.3925,1.5645 L9.6075,1.5645 C9.42676617,1.56370205 9.25316098,1.63493961 9.12508043,1.76245716 C8.99699988,1.88997472 8.92499824,2.06326441 8.925,2.244 L8.925,10.434 L8.925,10.434 Z M12.075,10.434 L19.4205,10.434 C20.2905,10.434 20.9955,11.136 20.9955,12 L20.9955,15.6525 L0.0045,15.6525 L0.0045,12 C0.0045,11.136 0.7095,10.434 1.5795,10.434 L8.925,10.434 L8.925,12 L2.2605,12 C1.88556255,11.9999964 1.58115171,12.3030662 1.5795,12.678 L1.5795,14.088 L19.4205,14.088 L19.4205,12.678 C19.4201026,12.4977853 19.3481313,12.3251096 19.2204189,12.1979598 C19.0927065,12.07081 18.9197147,11.9996017 18.7395,12 L12.075,12 L12.075,10.434 Z M13.5345,22.434 L14.9595,22.434 L14.9595,19.305 L13.5345,19.305 L13.5345,22.4355 L2.6295,22.4355 C2.35181799,22.4362968 2.08519271,22.3267516 1.88827927,22.1309634 C1.69136582,21.9351752 1.58029451,21.669182 1.5795,21.3915 L1.5795,17.739 L19.4205,17.739 L19.4205,21.3915 C19.4197055,21.669182 19.3086342,21.9351752 19.1117207,22.1309634 C18.9148073,22.3267516 18.648182,22.4362968 18.3705,22.4355 L18.0015,22.4355 L18.0015,19.305 L16.5345,19.305 L16.5345,22.4355 L10.5345,22.4355 L13.5345,22.4355 L13.5345,22.434 Z M0.0045,22.434 C0.0045,23.2995 0.7095,24 1.5795,24 L19.4205,24 C20.2905,24 20.9955,23.2995 20.9955,22.4355 L20.9955,16.1745 L0.0045,16.1745 L0.0045,22.4355 L0.0045,22.434 Z" id="Shape"></path>
            </g>
            <g id="区域复制" transform="translate(38.000000, 438.000000)" fill-rule="nonzero" fill="#939393">
                <path d="M20.24,18.04 L18.04,18.04 L18.04,20.24 L17.732,20.24 L17.732,21.12 L19.932,21.12 C20.2429571,21.1319688 20.5453718,21.0167454 20.7695264,20.8008928 C20.993681,20.5850403 21.1202303,20.2871873 21.12,19.976 L21.12,16.324 L20.24,16.324 L20.24,18.04 Z M20.24,11.044 L21.12,11.044 L21.12,12.804 L20.24,12.804 L20.24,11.044 Z M15.092,20.24 L16.852,20.24 L16.852,21.12 L15.092,21.12 L15.092,20.24 Z M20.24,13.684 L21.12,13.684 L21.12,15.444 L20.24,15.444 L20.24,13.684 Z M20.24,3.124 L21.12,3.124 L21.12,4.884 L20.24,4.884 L20.24,3.124 Z M20.24,5.764 L21.12,5.764 L21.12,7.524 L20.24,7.524 L20.24,5.764 Z M20.24,8.404 L21.12,8.404 L21.12,10.164 L20.24,10.164 L20.24,8.404 Z M0,5.808 L0.88,5.808 L0.88,7.568 L0,7.568 L0,5.808 Z M0,3.168 L0.88,3.168 L0.88,4.928 L0,4.928 L0,3.168 Z M0,8.448 L0.88,8.448 L0.88,10.208 L0,10.208 L0,8.448 Z M9.636,0 L11.396,0 L11.396,0.88 L9.636,0.88 L9.636,0 Z M0,11.088 L0.88,11.088 L0.88,12.848 L0,12.848 L0,11.088 Z M12.276,0 L14.036,0 L14.036,0.88 L12.276,0.88 L12.276,0 Z M7.172,20.24 L8.932,20.24 L8.932,21.12 L7.172,21.12 L7.172,20.24 Z M6.996,0 L8.756,0 L8.756,0.88 L6.996,0.88 L6.996,0 Z M12.452,20.24 L14.212,20.24 L14.212,21.12 L12.452,21.12 L12.452,20.24 Z M0,13.728 L0.88,13.728 L0.88,15.488 L0,15.488 L0,13.728 Z M9.812,20.24 L11.572,20.24 L11.572,21.12 L9.812,21.12 L9.812,20.24 Z M4.532,20.24 L6.292,20.24 L6.292,21.12 L4.532,21.12 L4.532,20.24 Z M4.356,0 L6.116,0 L6.116,0.88 L4.356,0.88 L4.356,0 Z M14.916,0 L16.676,0 L16.676,0.88 L14.916,0.88 L14.916,0 Z M3.08,0.88 L3.476,0.88 L3.476,0 L1.144,0 C0.840592336,-7.81597009e-16 0.549611459,0.120528225 0.335069842,0.335069842 C0.120528225,0.549611459 0,0.840592336 0,1.144 L0,3.08 L3.08,3.08 L3.08,0.88 Z M19.976,0 L17.556,0 L17.556,0.88 L18.04,0.88 L18.04,3.08 L21.12,3.08 L21.12,1.144 C21.12,0.512186246 20.6078138,0 19.976,0 Z M3.08,18.04 L0.88,18.04 L0.88,16.368 L0,16.368 L0,19.976 C0,20.6078138 0.512186246,21.12 1.144,21.12 L3.652,21.12 L3.652,20.24 L3.08,20.24 L3.08,18.04 Z M10.56,14.08 C12.5040423,14.08 14.08,12.5040423 14.08,10.56 C14.08,8.61595768 12.5040423,7.04 10.56,7.04 C8.61595768,7.04 7.04,8.61595768 7.04,10.56 C7.04,12.5040423 8.61595768,14.08 10.56,14.08 Z M10.56,7.92 C12.0180317,7.92 13.2,9.10196826 13.2,10.56 C13.2,12.0180317 12.0180317,13.2 10.56,13.2 C9.10196826,13.2 7.92,12.0180317 7.92,10.56 C7.92,9.10196826 9.10196826,7.92 10.56,7.92 Z" id="Shape"></path>
                <polygon id="Shape" points="10.12 12.32 11 12.32 11 11 12.32 11 12.32 10.12 11 10.12 11 8.8 10.12 8.8 10.12 10.12 8.8 10.12 8.8 11 10.12 11"></polygon>
            </g>
            <g id="区域复制-copy" transform="translate(114.000000, 438.000000)" fill-rule="nonzero" fill="#FFFFFF">
                <path d="M20.24,18.04 L18.04,18.04 L18.04,20.24 L17.732,20.24 L17.732,21.12 L19.932,21.12 C20.2429571,21.1319688 20.5453718,21.0167454 20.7695264,20.8008928 C20.993681,20.5850403 21.1202303,20.2871873 21.12,19.976 L21.12,16.324 L20.24,16.324 L20.24,18.04 Z M20.24,11.044 L21.12,11.044 L21.12,12.804 L20.24,12.804 L20.24,11.044 Z M15.092,20.24 L16.852,20.24 L16.852,21.12 L15.092,21.12 L15.092,20.24 Z M20.24,13.684 L21.12,13.684 L21.12,15.444 L20.24,15.444 L20.24,13.684 Z M20.24,3.124 L21.12,3.124 L21.12,4.884 L20.24,4.884 L20.24,3.124 Z M20.24,5.764 L21.12,5.764 L21.12,7.524 L20.24,7.524 L20.24,5.764 Z M20.24,8.404 L21.12,8.404 L21.12,10.164 L20.24,10.164 L20.24,8.404 Z M0,5.808 L0.88,5.808 L0.88,7.568 L0,7.568 L0,5.808 Z M0,3.168 L0.88,3.168 L0.88,4.928 L0,4.928 L0,3.168 Z M0,8.448 L0.88,8.448 L0.88,10.208 L0,10.208 L0,8.448 Z M9.636,0 L11.396,0 L11.396,0.88 L9.636,0.88 L9.636,0 Z M0,11.088 L0.88,11.088 L0.88,12.848 L0,12.848 L0,11.088 Z M12.276,0 L14.036,0 L14.036,0.88 L12.276,0.88 L12.276,0 Z M7.172,20.24 L8.932,20.24 L8.932,21.12 L7.172,21.12 L7.172,20.24 Z M6.996,0 L8.756,0 L8.756,0.88 L6.996,0.88 L6.996,0 Z M12.452,20.24 L14.212,20.24 L14.212,21.12 L12.452,21.12 L12.452,20.24 Z M0,13.728 L0.88,13.728 L0.88,15.488 L0,15.488 L0,13.728 Z M9.812,20.24 L11.572,20.24 L11.572,21.12 L9.812,21.12 L9.812,20.24 Z M4.532,20.24 L6.292,20.24 L6.292,21.12 L4.532,21.12 L4.532,20.24 Z M4.356,0 L6.116,0 L6.116,0.88 L4.356,0.88 L4.356,0 Z M14.916,0 L16.676,0 L16.676,0.88 L14.916,0.88 L14.916,0 Z M3.08,0.88 L3.476,0.88 L3.476,0 L1.144,0 C0.840592336,-7.81597009e-16 0.549611459,0.120528225 0.335069842,0.335069842 C0.120528225,0.549611459 0,0.840592336 0,1.144 L0,3.08 L3.08,3.08 L3.08,0.88 Z M19.976,0 L17.556,0 L17.556,0.88 L18.04,0.88 L18.04,3.08 L21.12,3.08 L21.12,1.144 C21.12,0.512186246 20.6078138,0 19.976,0 Z M3.08,18.04 L0.88,18.04 L0.88,16.368 L0,16.368 L0,19.976 C0,20.6078138 0.512186246,21.12 1.144,21.12 L3.652,21.12 L3.652,20.24 L3.08,20.24 L3.08,18.04 Z M10.56,14.08 C12.5040423,14.08 14.08,12.5040423 14.08,10.56 C14.08,8.61595768 12.5040423,7.04 10.56,7.04 C8.61595768,7.04 7.04,8.61595768 7.04,10.56 C7.04,12.5040423 8.61595768,14.08 10.56,14.08 Z M10.56,7.92 C12.0180317,7.92 13.2,9.10196826 13.2,10.56 C13.2,12.0180317 12.0180317,13.2 10.56,13.2 C9.10196826,13.2 7.92,12.0180317 7.92,10.56 C7.92,9.10196826 9.10196826,7.92 10.56,7.92 Z" id="Shape"></path>
                <polygon id="Shape" points="10.12 12.32 11 12.32 11 11 12.32 11 12.32 10.12 11 10.12 11 8.8 10.12 8.8 10.12 10.12 8.8 10.12 8.8 11 10.12 11"></polygon>
            </g>
        </g>
    </g>
</svg>